<svg version="1.1" xmlns="http://www.w3.org/2000/svg" xmlns:xlink="http://www.w3.org/1999/xlink" width="600" height="250" style="width: 600px; height: 250px;"><defs><clipPath id="lcoWHHtOFInU"><path fill="none" stroke="none" d=" M 44 5 L 595 5 L 595 195 L 44 195 L 44 5 Z"/></clipPath><clipPath id="kRiqZhqkDnzp"><path fill="none" stroke="none" d=" M 44 5 L 595 5 L 595 195 L 44 195 L 44 5 Z"/></clipPath><clipPath id="cQqdzFiLgSXX"><path fill="none" stroke="none" d=" M 44 5 L 595 5 L 595 195 L 44 195 L 44 5 Z"/></clipPath></defs><g><g transform="scale(1,1) translate(0.5,0.5)"><rect fill="#FFFFFF" stroke="none" x="0" y="0" width="600" height="250"/><g><rect fill="none" stroke="#e5e5e5" x="44" y="5" width="551" height="190" stroke-linejoin="bevel" stroke-miterlimit="10"/></g><g clip-path="url(#lcoWHHtOFInU)"><g><g/></g></g><g clip-path="url(#kRiqZhqkDnzp)"><g><g><path fill="none" stroke="#e5e5e5" paint-order="fill stroke markers" d=" M 44 154 L 595 154" stroke-linejoin="bevel" stroke-miterlimit="10"/><path fill="none" stroke="#e5e5e5" paint-order="fill stroke markers" d=" M 44 113 L 595 113" stroke-linejoin="bevel" stroke-miterlimit="10"/><path fill="none" stroke="#e5e5e5" paint-order="fill stroke markers" d=" M 44 72 L 595 72" stroke-linejoin="bevel" stroke-miterlimit="10"/><path fill="none" stroke="#e5e5e5" paint-order="fill stroke markers" d=" M 44 31 L 595 31" stroke-linejoin="bevel" stroke-miterlimit="10"/></g></g></g><g clip-path="url(#cQqdzFiLgSXX)"><g><g><path fill="none" stroke="none"/><path fill="#0072B2" stroke="none" paint-order="stroke fill markers" d=" M 70.59147025813692 128.09859154929578 L 98.41975308641977 128.09859154929578 L 98.41975308641977 195 L 70.59147025813692 195 L 70.59147025813692 128.09859154929578 Z"/><path fill="none" stroke="white" paint-order="fill stroke markers" d=" M 70.59147025813692 128.09859154929578 L 98.41975308641977 128.09859154929578 L 98.41975308641977 195 L 70.59147025813692 195 L 70.59147025813692 128.09859154929578 Z" stroke-linejoin="bevel" stroke-miterlimit="10"/><path fill="#E69F00" stroke="none" paint-order="stroke fill markers" d=" M 101.51178451178453 81.15867246489692 L 129.34006734006735 81.15867246489692 L 129.34006734006735 195 L 101.51178451178453 195 L 101.51178451178453 81.15867246489692 Z"/><path fill="none" stroke="white" paint-order="fill stroke markers" d=" M 101.51178451178453 81.15867246489692 L 129.34006734006735 81.15867246489692 L 129.34006734006735 195 L 101.51178451178453 195 L 101.51178451178453 81.15867246489692 Z" stroke-linejoin="bevel" stroke-miterlimit="10"/><path fill="#F0E442" stroke="none" paint-order="stroke fill markers" d=" M 132.4320987654321 55.25724237900522 L 160.26038159371495 55.25724237900522 L 160.26038159371495 195 L 132.4320987654321 195 L 132.4320987654321 55.25724237900522 Z"/><path fill="none" stroke="white" paint-order="fill stroke markers" d=" M 132.4320987654321 55.25724237900522 L 160.26038159371495 55.25724237900522 L 160.26038159371495 195 L 132.4320987654321 195 L 132.4320987654321 55.25724237900522 Z" stroke-linejoin="bevel" stroke-miterlimit="10"/><path fill="#0072B2" stroke="none" paint-order="stroke fill markers" d=" M 206.64085297418634 138.1862140585448 L 234.4691358024692 138.1862140585448 L 234.4691358024692 195 L 206.64085297418634 195 L 206.64085297418634 138.1862140585448 Z"/><path fill="none" stroke="white" paint-order="fill stroke markers" d=" M 206.64085297418634 138.1862140585448 L 234.4691358024692 138.1862140585448 L 234.4691358024692 195 L 206.64085297418634 195 L 206.64085297418634 138.1862140585448 Z" stroke-linejoin="bevel" stroke-miterlimit="10"/><path fill="#E69F00" stroke="none" paint-order="stroke fill markers" d=" M 237.56116722783392 114.41000843772312 L 265.38945005611674 114.41000843772312 L 265.38945005611674 195 L 237.56116722783392 195 L 237.56116722783392 114.41000843772312 Z"/><path fill="none" stroke="white" paint-order="fill stroke markers" d=" M 237.56116722783392 114.41000843772312 L 265.38945005611674 114.41000843772312 L 265.38945005611674 195 L 237.56116722783392 195 L 237.56116722783392 114.41000843772312 Z" stroke-linejoin="bevel" stroke-miterlimit="10"/><path fill="#F0E442" stroke="none" paint-order="stroke fill markers" d=" M 268.4814814814815 77.83312779905239 L 296.3097643097643 77.83312779905239 L 296.3097643097643 195 L 268.4814814814815 195 L 268.4814814814815 77.83312779905239 Z"/><path fill="none" stroke="white" paint-order="fill stroke markers" d=" M 268.4814814814815 77.83312779905239 L 296.3097643097643 77.83312779905239 L 296.3097643097643 195 L 268.4814814814815 195 L 268.4814814814815 77.83312779905239 Z" stroke-linejoin="bevel" stroke-miterlimit="10"/><path fill="#0072B2" stroke="none" paint-order="stroke fill markers" d=" M 342.6902356902358 140.50464074771207 L 370.5185185185186 140.50464074771207 L 370.5185185185186 195 L 342.6902356902358 195 L 342.6902356902358 140.50464074771207 Z"/><path fill="none" stroke="white" paint-order="fill stroke markers" d=" M 342.6902356902358 140.50464074771207 L 370.5185185185186 140.50464074771207 L 370.5185185185186 195 L 342.6902356902358 195 L 342.6902356902358 140.50464074771207 Z" stroke-linejoin="bevel" stroke-miterlimit="10"/><path fill="#E69F00" stroke="none" paint-order="stroke fill markers" d=" M 373.61054994388337 81.71772570909329 L 401.43883277216617 81.71772570909329 L 401.43883277216617 195 L 373.61054994388337 195 L 373.61054994388337 81.71772570909329 Z"/><path fill="none" stroke="white" paint-order="fill stroke markers" d=" M 373.61054994388337 81.71772570909329 L 401.43883277216617 81.71772570909329 L 401.43883277216617 195 L 373.61054994388337 195 L 373.61054994388337 81.71772570909329 Z" stroke-linejoin="bevel" stroke-miterlimit="10"/><path fill="#F0E442" stroke="none" paint-order="stroke fill markers" d=" M 404.530864197531 14.047619047619065 L 432.3591470258138 14.047619047619065 L 432.3591470258138 195 L 404.530864197531 195 L 404.530864197531 14.047619047619065 Z"/><path fill="none" stroke="white" paint-order="fill stroke markers" d=" M 404.530864197531 14.047619047619065 L 432.3591470258138 14.047619047619065 L 432.3591470258138 195 L 404.530864197531 195 L 404.530864197531 14.047619047619065 Z" stroke-linejoin="bevel" stroke-miterlimit="10"/><path fill="#0072B2" stroke="none" paint-order="stroke fill markers" d=" M 478.7396184062852 152.8120334912702 L 506.567901234568 152.8120334912702 L 506.567901234568 195 L 478.7396184062852 195 L 478.7396184062852 152.8120334912702 Z"/><path fill="none" stroke="white" paint-order="fill stroke markers" d=" M 478.7396184062852 152.8120334912702 L 506.567901234568 152.8120334912702 L 506.567901234568 195 L 478.7396184062852 195 L 478.7396184062852 152.8120334912702 Z" stroke-linejoin="bevel" stroke-miterlimit="10"/><path fill="#E69F00" stroke="none" paint-order="stroke fill markers" d=" M 509.65993265993274 124.03312347201489 L 537.4882154882155 124.03312347201489 L 537.4882154882155 195 L 509.65993265993274 195 L 509.65993265993274 124.03312347201489 Z"/><path fill="none" stroke="white" paint-order="fill stroke markers" d=" M 509.65993265993274 124.03312347201489 L 537.4882154882155 124.03312347201489 L 537.4882154882155 195 L 509.65993265993274 195 L 509.65993265993274 124.03312347201489 Z" stroke-linejoin="bevel" stroke-miterlimit="10"/><path fill="#F0E442" stroke="none" paint-order="stroke fill markers" d=" M 540.5802469135804 88.55790657926052 L 568.4085297418633 88.55790657926052 L 568.4085297418633 195 L 540.5802469135804 195 L 540.5802469135804 88.55790657926052 Z"/><path fill="none" stroke="white" paint-order="fill stroke markers" d=" M 540.5802469135804 88.55790657926052 L 568.4085297418633 88.55790657926052 L 568.4085297418633 195 L 540.5802469135804 195 L 540.5802469135804 88.55790657926052 Z" stroke-linejoin="bevel" stroke-miterlimit="10"/></g></g></g><g><g fill="grey" stroke="lightgrey" stroke-linejoin="bevel" stroke-miterlimit="10" stroke-width="2"><path fill="none" stroke="black" paint-order="fill stroke markers" d=" M 44 195 L 595 195" stroke-linejoin="bevel" stroke-miterlimit="10"/><path fill="none" stroke="black" paint-order="fill stroke markers" d=" M 85 201 L 85 193" stroke-linejoin="bevel" stroke-miterlimit="10"/><path fill="none" stroke="black" paint-order="fill stroke markers" d=" M 115 201 L 115 193" stroke-linejoin="bevel" stroke-miterlimit="10"/><path fill="none" stroke="black" paint-order="fill stroke markers" d=" M 146 201 L 146 193" stroke-linejoin="bevel" stroke-miterlimit="10"/><path fill="none" stroke="black" paint-order="fill stroke markers" d=" M 221 201 L 221 193" stroke-linejoin="bevel" stroke-miterlimit="10"/><path fill="none" stroke="black" paint-order="fill stroke markers" d=" M 251 201 L 251 193" stroke-linejoin="bevel" stroke-miterlimit="10"/><path fill="none" stroke="black" paint-order="fill stroke markers" d=" M 282 201 L 282 193" stroke-linejoin="bevel" stroke-miterlimit="10"/><path fill="none" stroke="black" paint-order="fill stroke markers" d=" M 357 201 L 357 193" stroke-linejoin="bevel" stroke-miterlimit="10"/><path fill="none" stroke="black" paint-order="fill stroke markers" d=" M 388 201 L 388 193" stroke-linejoin="bevel" stroke-miterlimit="10"/><path fill="none" stroke="black" paint-order="fill stroke markers" d=" M 418 201 L 418 193" stroke-linejoin="bevel" stroke-miterlimit="10"/><path fill="none" stroke="black" paint-order="fill stroke markers" d=" M 493 201 L 493 193" stroke-linejoin="bevel" stroke-miterlimit="10"/><path fill="none" stroke="black" paint-order="fill stroke markers" d=" M 524 201 L 524 193" stroke-linejoin="bevel" stroke-miterlimit="10"/><path fill="" stroke="" paint-order="fill stroke markers" d=" M 554 201 L 554 193" stroke-linejoin="bevel" stroke-miterlimit="10"/><g transform="translate(85,206) rotate(-57.29577951308232,0,0)"><text fill="" stroke="none" font-family="helvetica" font-size="8pt" font-style="normal" font-weight="normal" text-decoration="normal" x="0" y="0" text-anchor="end" dominant-baseline="central">2010</text><g transform="rotate(57.29577951308232,0,0) translate(-85,-206) translate(115,206) rotate(-57.29577951308232,0,0)"><text fill="" stroke="none" font-family="helvetica" font-size="8pt" font-style="normal" font-weight="normal" text-decoration="normal" x="0" y="0" text-anchor="end" dominant-baseline="central">2014</text><g transform="rotate(57.29577951308232,0,0) translate(-115,-206) translate(146,206) rotate(-57.29577951308232,0,0)"><text fill="" stroke="none" font-family="helvetica" font-size="8pt" font-style="normal" font-weight="normal" text-decoration="normal" x="0" y="0" text-anchor="end" dominant-baseline="central">2020</text><g transform="rotate(57.29577951308232,0,0) translate(-146,-206) translate(221,206) rotate(-57.29577951308232,0,0)"><text fill="" stroke="none" font-family="helvetica" font-size="8pt" font-style="normal" font-weight="normal" text-decoration="normal" x="0" y="0" text-anchor="end" dominant-baseline="central">2010</text><g transform="rotate(57.29577951308232,0,0) translate(-221,-206) translate(251,206) rotate(-57.29577951308232,0,0)"><text fill="" stroke="none" font-family="helvetica" font-size="8pt" font-style="normal" font-weight="normal" text-decoration="normal" x="0" y="0" text-anchor="end" dominant-baseline="central">2014</text><g transform="rotate(57.29577951308232,0,0) translate(-251,-206) translate(282,206) rotate(-57.29577951308232,0,0)"><text fill="" stroke="none" font-family="helvetica" font-size="8pt" font-style="normal" font-weight="normal" text-decoration="normal" x="0" y="0" text-anchor="end" dominant-baseline="central">2020</text><g transform="rotate(57.29577951308232,0,0) translate(-282,-206) translate(357,206) rotate(-57.29577951308232,0,0)"><text fill="" stroke="none" font-family="helvetica" font-size="8pt" font-style="normal" font-weight="normal" text-decoration="normal" x="0" y="0" text-anchor="end" dominant-baseline="central">2010</text><g transform="rotate(57.29577951308232,0,0) translate(-357,-206) translate(388,206) rotate(-57.29577951308232,0,0)"><text fill="" stroke="none" font-family="helvetica" font-size="8pt" font-style="normal" font-weight="normal" text-decoration="normal" x="0" y="0" text-anchor="end" dominant-baseline="central">2014</text><g transform="rotate(57.29577951308232,0,0) translate(-388,-206) translate(418,206) rotate(-57.29577951308232,0,0)"><text fill="" stroke="none" font-family="helvetica" font-size="8pt" font-style="normal" font-weight="normal" text-decoration="normal" x="0" y="0" text-anchor="end" dominant-baseline="central">2020</text><g transform="rotate(57.29577951308232,0,0) translate(-418,-206) translate(493,206) rotate(-57.29577951308232,0,0)"><text fill="" stroke="none" font-family="helvetica" font-size="8pt" font-style="normal" font-weight="normal" text-decoration="normal" x="0" y="0" text-anchor="end" dominant-baseline="central">2010</text><g transform="rotate(57.29577951308232,0,0) translate(-493,-206) translate(524,206) rotate(-57.29577951308232,0,0)"><text fill="" stroke="none" font-family="helvetica" font-size="8pt" font-style="normal" font-weight="normal" text-decoration="normal" x="0" y="0" text-anchor="end" dominant-baseline="central">2014</text><g transform="rotate(57.29577951308232,0,0) translate(-524,-206) translate(554,206) rotate(-57.29577951308232,0,0)"><text fill="" stroke="none" font-family="helvetica" font-size="8pt" font-style="normal" font-weight="normal" text-decoration="normal" x="0" y="0" text-anchor="end" dominant-baseline="central">2020</text><g transform="rotate(57.29577951308232,0,0) translate(-554,-206) translate(115,236) rotate(0,0,0)"><text fill="" stroke="none" font-family="helvetica" font-size="8pt" font-style="normal" font-weight="bold" text-decoration="normal" x="0" y="0" text-anchor="middle" dominant-baseline="hanging">Compounds</text><g transform="rotate(0,0,0) translate(-115,-236) translate(251,236) rotate(0,0,0)"><text fill="" stroke="none" font-family="helvetica" font-size="8pt" font-style="normal" font-weight="bold" text-decoration="normal" x="0" y="0" text-anchor="middle" dominant-baseline="hanging">Compounds with structure</text><g transform="rotate(0,0,0) translate(-251,-236) translate(388,236) rotate(0,0,0)"><text fill="" stroke="none" font-family="helvetica" font-size="8pt" font-style="normal" font-weight="bold" text-decoration="normal" x="0" y="0" text-anchor="middle" dominant-baseline="hanging">Reactions</text><g transform="rotate(0,0,0) translate(-388,-236) translate(524,236) rotate(0,0,0)"><text fill="" stroke="none" font-family="helvetica" font-size="8pt" font-style="normal" font-weight="bold" text-decoration="normal" x="0" y="0" text-anchor="middle" dominant-baseline="hanging">Mass-balanced reactions</text><g transform="rotate(0,0,0) translate(-524,-236)"><path fill="none" stroke="" paint-order="fill stroke markers" d=" M 183 238 L 183 198"/><path fill="none" stroke="" paint-order="fill stroke markers" d=" M 320 238 L 320 198"/><path fill="none" stroke="" paint-order="fill stroke markers" d=" M 456 238 L 456 198"/></g></g></g></g></g></g></g></g></g></g></g></g></g></g></g></g></g></g></g><g><g fill="#444444"><path fill="none" stroke="black" paint-order="fill stroke markers" d=" M 44 195 L 44 5" stroke-linejoin="bevel" stroke-miterlimit="10"/><path fill="none" stroke="black" paint-order="fill stroke markers" d=" M 38 195 L 46 195" stroke-linejoin="bevel" stroke-miterlimit="10"/><path fill="none" stroke="black" paint-order="fill stroke markers" d=" M 38 154 L 46 154" stroke-linejoin="bevel" stroke-miterlimit="10"/><path fill="none" stroke="black" paint-order="fill stroke markers" d=" M 38 113 L 46 113" stroke-linejoin="bevel" stroke-miterlimit="10"/><path fill="none" stroke="black" paint-order="fill stroke markers" d=" M 38 72 L 46 72" stroke-linejoin="bevel" stroke-miterlimit="10"/><path fill="none" stroke="black" paint-order="fill stroke markers" d=" M 38 31 L 46 31" stroke-linejoin="bevel" stroke-miterlimit="10"/><path fill="none" stroke="black" paint-order="fill stroke markers" d=" M 40 195 L 44 195" stroke-linejoin="bevel" stroke-miterlimit="10"/><path fill="none" stroke="black" paint-order="fill stroke markers" d=" M 40 187 L 44 187" stroke-linejoin="bevel" stroke-miterlimit="10"/><path fill="none" stroke="black" paint-order="fill stroke markers" d=" M 40 179 L 44 179" stroke-linejoin="bevel" stroke-miterlimit="10"/><path fill="none" stroke="black" paint-order="fill stroke markers" d=" M 40 170 L 44 170" stroke-linejoin="bevel" stroke-miterlimit="10"/><path fill="none" stroke="black" paint-order="fill stroke markers" d=" M 40 162 L 44 162" stroke-linejoin="bevel" stroke-miterlimit="10"/><path fill="none" stroke="black" paint-order="fill stroke markers" d=" M 40 154 L 44 154" stroke-linejoin="bevel" stroke-miterlimit="10"/><path fill="none" stroke="black" paint-order="fill stroke markers" d=" M 40 146 L 44 146" stroke-linejoin="bevel" stroke-miterlimit="10"/><path fill="none" stroke="black" paint-order="fill stroke markers" d=" M 40 137 L 44 137" stroke-linejoin="bevel" stroke-miterlimit="10"/><path fill="none" stroke="black" paint-order="fill stroke markers" d=" M 40 129 L 44 129" stroke-linejoin="bevel" stroke-miterlimit="10"/><path fill="none" stroke="black" paint-order="fill stroke markers" d=" M 40 121 L 44 121" stroke-linejoin="bevel" stroke-miterlimit="10"/><path fill="none" stroke="black" paint-order="fill stroke markers" d=" M 40 113 L 44 113" stroke-linejoin="bevel" stroke-miterlimit="10"/><path fill="none" stroke="black" paint-order="fill stroke markers" d=" M 40 105 L 44 105" stroke-linejoin="bevel" stroke-miterlimit="10"/><path fill="none" stroke="black" paint-order="fill stroke markers" d=" M 40 96 L 44 96" stroke-linejoin="bevel" stroke-miterlimit="10"/><path fill="none" stroke="black" paint-order="fill stroke markers" d=" M 40 88 L 44 88" stroke-linejoin="bevel" stroke-miterlimit="10"/><path fill="none" stroke="black" paint-order="fill stroke markers" d=" M 40 80 L 44 80" stroke-linejoin="bevel" stroke-miterlimit="10"/><path fill="none" stroke="black" paint-order="fill stroke markers" d=" M 40 72 L 44 72" stroke-linejoin="bevel" stroke-miterlimit="10"/><path fill="none" stroke="black" paint-order="fill stroke markers" d=" M 40 63 L 44 63" stroke-linejoin="bevel" stroke-miterlimit="10"/><path fill="none" stroke="black" paint-order="fill stroke markers" d=" M 40 55 L 44 55" stroke-linejoin="bevel" stroke-miterlimit="10"/><path fill="none" stroke="black" paint-order="fill stroke markers" d=" M 40 47 L 44 47" stroke-linejoin="bevel" stroke-miterlimit="10"/><path fill="none" stroke="black" paint-order="fill stroke markers" d=" M 40 39 L 44 39" stroke-linejoin="bevel" stroke-miterlimit="10"/><path fill="none" stroke="black" paint-order="fill stroke markers" d=" M 40 31 L 44 31" stroke-linejoin="bevel" stroke-miterlimit="10"/><path fill="none" stroke="black" paint-order="fill stroke markers" d=" M 40 22 L 44 22" stroke-linejoin="bevel" stroke-miterlimit="10"/><path fill="none" stroke="black" paint-order="fill stroke markers" d=" M 40 14 L 44 14" stroke-linejoin="bevel" stroke-miterlimit="10"/><path fill="" stroke="black" paint-order="fill stroke markers" d=" M 40 6 L 44 6" stroke-linejoin="bevel" stroke-miterlimit="10"/><g transform="translate(33,195) rotate(0,0,0)"><text fill="" stroke="none" font-family="helvetica" font-size="8pt" font-style="normal" font-weight="normal" text-decoration="normal" x="0" y="0" text-anchor="end" dominant-baseline="central">0</text><g transform="rotate(0,0,0) translate(-33,-195) translate(33,154) rotate(0,0,0)"><text fill="" stroke="none" font-family="helvetica" font-size="8pt" font-style="normal" font-weight="normal" text-decoration="normal" x="0" y="0" text-anchor="end" dominant-baseline="central">10000</text><g transform="rotate(0,0,0) translate(-33,-154) translate(33,113) rotate(0,0,0)"><text fill="" stroke="none" font-family="helvetica" font-size="8pt" font-style="normal" font-weight="normal" text-decoration="normal" x="0" y="0" text-anchor="end" dominant-baseline="central">20000</text><g transform="rotate(0,0,0) translate(-33,-113) translate(33,72) rotate(0,0,0)"><text fill="" stroke="none" font-family="helvetica" font-size="8pt" font-style="normal" font-weight="normal" text-decoration="normal" x="0" y="0" text-anchor="end" dominant-baseline="central">30000</text><g transform="rotate(0,0,0) translate(-33,-72) translate(33,31) rotate(0,0,0)"><text fill="" stroke="none" font-family="helvetica" font-size="8pt" font-style="normal" font-weight="normal" text-decoration="normal" x="0" y="0" text-anchor="end" dominant-baseline="central">40000</text><g transform="rotate(0,0,0) translate(-33,-31)"/></g></g></g></g></g></g></g></g></g></svg>