<svg version="1.1" xmlns="http://www.w3.org/2000/svg" xmlns:xlink="http://www.w3.org/1999/xlink" width="600" height="250" style="width: 600px; height: 250px;"><defs><clipPath id="TEbctsKCoUQe"><path fill="none" stroke="none" d=" M 45 5 L 595 5 L 595 195 L 45 195 L 45 5 Z"/></clipPath><clipPath id="WibqmFHeWomR"><path fill="none" stroke="none" d=" M 45 5 L 595 5 L 595 195 L 45 195 L 45 5 Z"/></clipPath><clipPath id="EgQbxJHkvUkV"><path fill="none" stroke="none" d=" M 45 5 L 595 5 L 595 195 L 45 195 L 45 5 Z"/></clipPath></defs><g><g transform="scale(1,1) translate(0.5,0.5)"><rect fill="#FFFFFF" stroke="none" x="0" y="0" width="600" height="250"/><g><rect fill="none" stroke="#e5e5e5" x="45" y="5" width="550" height="190" stroke-linejoin="bevel" stroke-miterlimit="10"/></g><g clip-path="url(#TEbctsKCoUQe)"><g><g/></g></g><g clip-path="url(#WibqmFHeWomR)"><g><g><path fill="none" stroke="#e5e5e5" paint-order="fill stroke markers" d=" M 45 154 L 595 154" stroke-linejoin="bevel" stroke-miterlimit="10"/><path fill="none" stroke="#e5e5e5" paint-order="fill stroke markers" d=" M 45 113 L 595 113" stroke-linejoin="bevel" stroke-miterlimit="10"/><path fill="none" stroke="#e5e5e5" paint-order="fill stroke markers" d=" M 45 72 L 595 72" stroke-linejoin="bevel" stroke-miterlimit="10"/><path fill="none" stroke="#e5e5e5" paint-order="fill stroke markers" d=" M 45 31 L 595 31" stroke-linejoin="bevel" stroke-miterlimit="10"/></g></g></g><g clip-path="url(#EgQbxJHkvUkV)"><g><g><path fill="none" stroke="none"/><path fill="#0072B2" stroke="none" paint-order="stroke fill markers" d=" M 71.54320987654322 128.11530512593401 L 99.32098765432099 128.11530512593401 L 99.32098765432099 195 L 71.54320987654322 195 L 71.54320987654322 128.11530512593401 Z"/><path fill="none" stroke="white" paint-order="fill stroke markers" d=" M 71.54320987654322 128.11530512593401 L 99.32098765432099 128.11530512593401 L 99.32098765432099 195 L 71.54320987654322 195 L 71.54320987654322 128.11530512593401 Z" stroke-linejoin="bevel" stroke-miterlimit="10"/><path fill="#E69F00" stroke="none" paint-order="stroke fill markers" d=" M 102.40740740740742 81.18711275930055 L 130.1851851851852 81.18711275930055 L 130.1851851851852 195 L 102.40740740740742 195 L 102.40740740740742 81.18711275930055 Z"/><path fill="none" stroke="white" paint-order="fill stroke markers" d=" M 102.40740740740742 81.18711275930055 L 130.1851851851852 81.18711275930055 L 130.1851851851852 195 L 102.40740740740742 195 L 102.40740740740742 81.18711275930055 Z" stroke-linejoin="bevel" stroke-miterlimit="10"/><path fill="#F0E442" stroke="none" paint-order="stroke fill markers" d=" M 133.2716049382716 55.29215347195861 L 161.04938271604942 55.29215347195861 L 161.04938271604942 195 L 133.2716049382716 195 L 133.2716049382716 55.29215347195861 Z"/><path fill="none" stroke="white" paint-order="fill stroke markers" d=" M 133.2716049382716 55.29215347195861 L 161.04938271604942 55.29215347195861 L 161.04938271604942 195 L 133.2716049382716 195 L 133.2716049382716 55.29215347195861 Z" stroke-linejoin="bevel" stroke-miterlimit="10"/><path fill="#0072B2" stroke="none" paint-order="stroke fill markers" d=" M 207.34567901234573 138.20040750510194 L 235.1234567901235 138.20040750510194 L 235.1234567901235 195 L 207.34567901234573 195 L 207.34567901234573 138.20040750510194 Z"/><path fill="none" stroke="white" paint-order="fill stroke markers" d=" M 207.34567901234573 138.20040750510194 L 235.1234567901235 138.20040750510194 L 235.1234567901235 195 L 207.34567901234573 195 L 207.34567901234573 138.20040750510194 Z" stroke-linejoin="bevel" stroke-miterlimit="10"/><path fill="#E69F00" stroke="none" paint-order="stroke fill markers" d=" M 238.20987654320993 114.4301417507795 L 265.9876543209877 114.4301417507795 L 265.9876543209877 195 L 238.20987654320993 195 L 238.20987654320993 114.4301417507795 Z"/><path fill="none" stroke="white" paint-order="fill stroke markers" d=" M 238.20987654320993 114.4301417507795 L 265.9876543209877 114.4301417507795 L 265.9876543209877 195 L 238.20987654320993 195 L 238.20987654320993 114.4301417507795 Z" stroke-linejoin="bevel" stroke-miterlimit="10"/><path fill="#F0E442" stroke="none" paint-order="stroke fill markers" d=" M 269.07407407407413 77.86239889428553 L 296.85185185185196 77.86239889428553 L 296.85185185185196 195 L 269.07407407407413 195 L 269.07407407407413 77.86239889428553 Z"/><path fill="none" stroke="white" paint-order="fill stroke markers" d=" M 269.07407407407413 77.86239889428553 L 296.85185185185196 77.86239889428553 L 296.85185185185196 195 L 269.07407407407413 195 L 269.07407407407413 77.86239889428553 Z" stroke-linejoin="bevel" stroke-miterlimit="10"/><path fill="#0072B2" stroke="none" paint-order="stroke fill markers" d=" M 343.14814814814827 140.51825499566866 L 370.925925925926 140.51825499566866 L 370.925925925926 195 L 343.14814814814827 195 L 343.14814814814827 140.51825499566866 Z"/><path fill="none" stroke="white" paint-order="fill stroke markers" d=" M 343.14814814814827 140.51825499566866 L 370.925925925926 140.51825499566866 L 370.925925925926 195 L 343.14814814814827 195 L 343.14814814814827 140.51825499566866 Z" stroke-linejoin="bevel" stroke-miterlimit="10"/><path fill="#E69F00" stroke="none" paint-order="stroke fill markers" d=" M 374.01234567901247 52.345528204695626 L 401.7901234567902 52.345528204695626 L 401.7901234567902 195 L 374.01234567901247 195 L 374.01234567901247 52.345528204695626 Z"/><path fill="none" stroke="white" paint-order="fill stroke markers" d=" M 374.01234567901247 52.345528204695626 L 401.7901234567902 52.345528204695626 L 401.7901234567902 195 L 374.01234567901247 195 L 374.01234567901247 52.345528204695626 Z" stroke-linejoin="bevel" stroke-miterlimit="10"/><path fill="#F0E442" stroke="none" paint-order="stroke fill markers" d=" M 404.8765432098767 14.047619047619065 L 432.6543209876544 14.047619047619065 L 432.6543209876544 195 L 404.8765432098767 195 L 404.8765432098767 14.047619047619065 Z"/><path fill="none" stroke="white" paint-order="fill stroke markers" d=" M 404.8765432098767 14.047619047619065 L 432.6543209876544 14.047619047619065 L 432.6543209876544 195 L 404.8765432098767 195 L 404.8765432098767 14.047619047619065 Z" stroke-linejoin="bevel" stroke-miterlimit="10"/><path fill="#0072B2" stroke="none" paint-order="stroke fill markers" d=" M 478.95061728395075 152.82257305729405 L 506.72839506172846 152.82257305729405 L 506.72839506172846 195 L 478.95061728395075 195 L 478.95061728395075 152.82257305729405 Z"/><path fill="none" stroke="white" paint-order="fill stroke markers" d=" M 478.95061728395075 152.82257305729405 L 506.72839506172846 152.82257305729405 L 506.72839506172846 195 L 478.95061728395075 195 L 478.95061728395075 152.82257305729405 Z" stroke-linejoin="bevel" stroke-miterlimit="10"/><path fill="#E69F00" stroke="none" paint-order="stroke fill markers" d=" M 509.814814814815 101.41074308036222 L 537.5925925925926 101.41074308036222 L 537.5925925925926 195 L 509.814814814815 195 L 509.814814814815 101.41074308036222 Z"/><path fill="none" stroke="white" paint-order="fill stroke markers" d=" M 509.814814814815 101.41074308036222 L 537.5925925925926 101.41074308036222 L 537.5925925925926 195 L 509.814814814815 195 L 509.814814814815 101.41074308036222 Z" stroke-linejoin="bevel" stroke-miterlimit="10"/><path fill="#F0E442" stroke="none" paint-order="stroke fill markers" d=" M 540.6790123456792 62.33610843442554 L 568.4567901234568 62.33610843442554 L 568.4567901234568 195 L 540.6790123456792 195 L 540.6790123456792 62.33610843442554 Z"/><path fill="none" stroke="white" paint-order="fill stroke markers" d=" M 540.6790123456792 62.33610843442554 L 568.4567901234568 62.33610843442554 L 568.4567901234568 195 L 540.6790123456792 195 L 540.6790123456792 62.33610843442554 Z" stroke-linejoin="bevel" stroke-miterlimit="10"/></g></g></g><g><g fill="grey" stroke="lightgrey" stroke-linejoin="bevel" stroke-miterlimit="10" stroke-width="2"><path fill="none" stroke="black" paint-order="fill stroke markers" d=" M 45 195 L 595 195" stroke-linejoin="bevel" stroke-miterlimit="10"/><path fill="none" stroke="black" paint-order="fill stroke markers" d=" M 85 201 L 85 193" stroke-linejoin="bevel" stroke-miterlimit="10"/><path fill="none" stroke="black" paint-order="fill stroke markers" d=" M 116 201 L 116 193" stroke-linejoin="bevel" stroke-miterlimit="10"/><path fill="none" stroke="black" paint-order="fill stroke markers" d=" M 147 201 L 147 193" stroke-linejoin="bevel" stroke-miterlimit="10"/><path fill="none" stroke="black" paint-order="fill stroke markers" d=" M 221 201 L 221 193" stroke-linejoin="bevel" stroke-miterlimit="10"/><path fill="none" stroke="black" paint-order="fill stroke markers" d=" M 252 201 L 252 193" stroke-linejoin="bevel" stroke-miterlimit="10"/><path fill="none" stroke="black" paint-order="fill stroke markers" d=" M 283 201 L 283 193" stroke-linejoin="bevel" stroke-miterlimit="10"/><path fill="none" stroke="black" paint-order="fill stroke markers" d=" M 357 201 L 357 193" stroke-linejoin="bevel" stroke-miterlimit="10"/><path fill="none" stroke="black" paint-order="fill stroke markers" d=" M 388 201 L 388 193" stroke-linejoin="bevel" stroke-miterlimit="10"/><path fill="none" stroke="black" paint-order="fill stroke markers" d=" M 419 201 L 419 193" stroke-linejoin="bevel" stroke-miterlimit="10"/><path fill="none" stroke="black" paint-order="fill stroke markers" d=" M 493 201 L 493 193" stroke-linejoin="bevel" stroke-miterlimit="10"/><path fill="none" stroke="black" paint-order="fill stroke markers" d=" M 524 201 L 524 193" stroke-linejoin="bevel" stroke-miterlimit="10"/><path fill="" stroke="" paint-order="fill stroke markers" d=" M 555 201 L 555 193" stroke-linejoin="bevel" stroke-miterlimit="10"/><g transform="translate(85,206) rotate(-57.29577951308232,0,0)"><text fill="" stroke="none" font-family="helvetica" font-size="8pt" font-style="normal" font-weight="normal" text-decoration="normal" x="0" y="0" text-anchor="end" dominant-baseline="central">2010</text><g transform="rotate(57.29577951308232,0,0) translate(-85,-206) translate(116,206) rotate(-57.29577951308232,0,0)"><text fill="" stroke="none" font-family="helvetica" font-size="8pt" font-style="normal" font-weight="normal" text-decoration="normal" x="0" y="0" text-anchor="end" dominant-baseline="central">2014</text><g transform="rotate(57.29577951308232,0,0) translate(-116,-206) translate(147,206) rotate(-57.29577951308232,0,0)"><text fill="" stroke="none" font-family="helvetica" font-size="8pt" font-style="normal" font-weight="normal" text-decoration="normal" x="0" y="0" text-anchor="end" dominant-baseline="central">2019</text><g transform="rotate(57.29577951308232,0,0) translate(-147,-206) translate(221,206) rotate(-57.29577951308232,0,0)"><text fill="" stroke="none" font-family="helvetica" font-size="8pt" font-style="normal" font-weight="normal" text-decoration="normal" x="0" y="0" text-anchor="end" dominant-baseline="central">2010</text><g transform="rotate(57.29577951308232,0,0) translate(-221,-206) translate(252,206) rotate(-57.29577951308232,0,0)"><text fill="" stroke="none" font-family="helvetica" font-size="8pt" font-style="normal" font-weight="normal" text-decoration="normal" x="0" y="0" text-anchor="end" dominant-baseline="central">2014</text><g transform="rotate(57.29577951308232,0,0) translate(-252,-206) translate(283,206) rotate(-57.29577951308232,0,0)"><text fill="" stroke="none" font-family="helvetica" font-size="8pt" font-style="normal" font-weight="normal" text-decoration="normal" x="0" y="0" text-anchor="end" dominant-baseline="central">2019</text><g transform="rotate(57.29577951308232,0,0) translate(-283,-206) translate(357,206) rotate(-57.29577951308232,0,0)"><text fill="" stroke="none" font-family="helvetica" font-size="8pt" font-style="normal" font-weight="normal" text-decoration="normal" x="0" y="0" text-anchor="end" dominant-baseline="central">2010</text><g transform="rotate(57.29577951308232,0,0) translate(-357,-206) translate(388,206) rotate(-57.29577951308232,0,0)"><text fill="" stroke="none" font-family="helvetica" font-size="8pt" font-style="normal" font-weight="normal" text-decoration="normal" x="0" y="0" text-anchor="end" dominant-baseline="central">2014</text><g transform="rotate(57.29577951308232,0,0) translate(-388,-206) translate(419,206) rotate(-57.29577951308232,0,0)"><text fill="" stroke="none" font-family="helvetica" font-size="8pt" font-style="normal" font-weight="normal" text-decoration="normal" x="0" y="0" text-anchor="end" dominant-baseline="central">2019</text><g transform="rotate(57.29577951308232,0,0) translate(-419,-206) translate(493,206) rotate(-57.29577951308232,0,0)"><text fill="" stroke="none" font-family="helvetica" font-size="8pt" font-style="normal" font-weight="normal" text-decoration="normal" x="0" y="0" text-anchor="end" dominant-baseline="central">2010</text><g transform="rotate(57.29577951308232,0,0) translate(-493,-206) translate(524,206) rotate(-57.29577951308232,0,0)"><text fill="" stroke="none" font-family="helvetica" font-size="8pt" font-style="normal" font-weight="normal" text-decoration="normal" x="0" y="0" text-anchor="end" dominant-baseline="central">2014</text><g transform="rotate(57.29577951308232,0,0) translate(-524,-206) translate(555,206) rotate(-57.29577951308232,0,0)"><text fill="" stroke="none" font-family="helvetica" font-size="8pt" font-style="normal" font-weight="normal" text-decoration="normal" x="0" y="0" text-anchor="end" dominant-baseline="central">2019</text><g transform="rotate(57.29577951308232,0,0) translate(-555,-206) translate(116,237) rotate(0,0,0)"><text fill="" stroke="none" font-family="helvetica" font-size="8pt" font-style="normal" font-weight="bold" text-decoration="normal" x="0" y="0" text-anchor="middle" dominant-baseline="hanging">Compounds</text><g transform="rotate(0,0,0) translate(-116,-237) translate(252,237) rotate(0,0,0)"><text fill="" stroke="none" font-family="helvetica" font-size="8pt" font-style="normal" font-weight="bold" text-decoration="normal" x="0" y="0" text-anchor="middle" dominant-baseline="hanging">Compounds with structure</text><g transform="rotate(0,0,0) translate(-252,-237) translate(388,237) rotate(0,0,0)"><text fill="" stroke="none" font-family="helvetica" font-size="8pt" font-style="normal" font-weight="bold" text-decoration="normal" x="0" y="0" text-anchor="middle" dominant-baseline="hanging">Reactions</text><g transform="rotate(0,0,0) translate(-388,-237) translate(524,237) rotate(0,0,0)"><text fill="" stroke="none" font-family="helvetica" font-size="8pt" font-style="normal" font-weight="bold" text-decoration="normal" x="0" y="0" text-anchor="middle" dominant-baseline="hanging">Mass-balanced reactions</text><g transform="rotate(0,0,0) translate(-524,-237)"><path fill="none" stroke="" paint-order="fill stroke markers" d=" M 184 238 L 184 198"/><path fill="none" stroke="" paint-order="fill stroke markers" d=" M 320 238 L 320 198"/><path fill="none" stroke="" paint-order="fill stroke markers" d=" M 456 238 L 456 198"/></g></g></g></g></g></g></g></g></g></g></g></g></g></g></g></g></g></g></g><g><g fill="#444444"><path fill="none" stroke="black" paint-order="fill stroke markers" d=" M 45 195 L 45 5" stroke-linejoin="bevel" stroke-miterlimit="10"/><path fill="none" stroke="black" paint-order="fill stroke markers" d=" M 39 195 L 47 195" stroke-linejoin="bevel" stroke-miterlimit="10"/><path fill="none" stroke="black" paint-order="fill stroke markers" d=" M 39 154 L 47 154" stroke-linejoin="bevel" stroke-miterlimit="10"/><path fill="none" stroke="black" paint-order="fill stroke markers" d=" M 39 113 L 47 113" stroke-linejoin="bevel" stroke-miterlimit="10"/><path fill="none" stroke="black" paint-order="fill stroke markers" d=" M 39 72 L 47 72" stroke-linejoin="bevel" stroke-miterlimit="10"/><path fill="none" stroke="black" paint-order="fill stroke markers" d=" M 39 31 L 47 31" stroke-linejoin="bevel" stroke-miterlimit="10"/><path fill="none" stroke="black" paint-order="fill stroke markers" d=" M 41 195 L 45 195" stroke-linejoin="bevel" stroke-miterlimit="10"/><path fill="none" stroke="black" paint-order="fill stroke markers" d=" M 41 187 L 45 187" stroke-linejoin="bevel" stroke-miterlimit="10"/><path fill="none" stroke="black" paint-order="fill stroke markers" d=" M 41 179 L 45 179" stroke-linejoin="bevel" stroke-miterlimit="10"/><path fill="none" stroke="black" paint-order="fill stroke markers" d=" M 41 170 L 45 170" stroke-linejoin="bevel" stroke-miterlimit="10"/><path fill="none" stroke="black" paint-order="fill stroke markers" d=" M 41 162 L 45 162" stroke-linejoin="bevel" stroke-miterlimit="10"/><path fill="none" stroke="black" paint-order="fill stroke markers" d=" M 41 154 L 45 154" stroke-linejoin="bevel" stroke-miterlimit="10"/><path fill="none" stroke="black" paint-order="fill stroke markers" d=" M 41 146 L 45 146" stroke-linejoin="bevel" stroke-miterlimit="10"/><path fill="none" stroke="black" paint-order="fill stroke markers" d=" M 41 137 L 45 137" stroke-linejoin="bevel" stroke-miterlimit="10"/><path fill="none" stroke="black" paint-order="fill stroke markers" d=" M 41 129 L 45 129" stroke-linejoin="bevel" stroke-miterlimit="10"/><path fill="none" stroke="black" paint-order="fill stroke markers" d=" M 41 121 L 45 121" stroke-linejoin="bevel" stroke-miterlimit="10"/><path fill="none" stroke="black" paint-order="fill stroke markers" d=" M 41 113 L 45 113" stroke-linejoin="bevel" stroke-miterlimit="10"/><path fill="none" stroke="black" paint-order="fill stroke markers" d=" M 41 105 L 45 105" stroke-linejoin="bevel" stroke-miterlimit="10"/><path fill="none" stroke="black" paint-order="fill stroke markers" d=" M 41 96 L 45 96" stroke-linejoin="bevel" stroke-miterlimit="10"/><path fill="none" stroke="black" paint-order="fill stroke markers" d=" M 41 88 L 45 88" stroke-linejoin="bevel" stroke-miterlimit="10"/><path fill="none" stroke="black" paint-order="fill stroke markers" d=" M 41 80 L 45 80" stroke-linejoin="bevel" stroke-miterlimit="10"/><path fill="none" stroke="black" paint-order="fill stroke markers" d=" M 41 72 L 45 72" stroke-linejoin="bevel" stroke-miterlimit="10"/><path fill="none" stroke="black" paint-order="fill stroke markers" d=" M 41 63 L 45 63" stroke-linejoin="bevel" stroke-miterlimit="10"/><path fill="none" stroke="black" paint-order="fill stroke markers" d=" M 41 55 L 45 55" stroke-linejoin="bevel" stroke-miterlimit="10"/><path fill="none" stroke="black" paint-order="fill stroke markers" d=" M 41 47 L 45 47" stroke-linejoin="bevel" stroke-miterlimit="10"/><path fill="none" stroke="black" paint-order="fill stroke markers" d=" M 41 39 L 45 39" stroke-linejoin="bevel" stroke-miterlimit="10"/><path fill="none" stroke="black" paint-order="fill stroke markers" d=" M 41 31 L 45 31" stroke-linejoin="bevel" stroke-miterlimit="10"/><path fill="none" stroke="black" paint-order="fill stroke markers" d=" M 41 22 L 45 22" stroke-linejoin="bevel" stroke-miterlimit="10"/><path fill="none" stroke="black" paint-order="fill stroke markers" d=" M 41 14 L 45 14" stroke-linejoin="bevel" stroke-miterlimit="10"/><path fill="" stroke="black" paint-order="fill stroke markers" d=" M 41 6 L 45 6" stroke-linejoin="bevel" stroke-miterlimit="10"/><g transform="translate(34,195) rotate(0,0,0)"><text fill="" stroke="none" font-family="helvetica" font-size="8pt" font-style="normal" font-weight="normal" text-decoration="normal" x="0" y="0" text-anchor="end" dominant-baseline="central">0</text><g transform="rotate(0,0,0) translate(-34,-195) translate(34,154) rotate(0,0,0)"><text fill="" stroke="none" font-family="helvetica" font-size="8pt" font-style="normal" font-weight="normal" text-decoration="normal" x="0" y="0" text-anchor="end" dominant-baseline="central">10000</text><g transform="rotate(0,0,0) translate(-34,-154) translate(34,113) rotate(0,0,0)"><text fill="" stroke="none" font-family="helvetica" font-size="8pt" font-style="normal" font-weight="normal" text-decoration="normal" x="0" y="0" text-anchor="end" dominant-baseline="central">20000</text><g transform="rotate(0,0,0) translate(-34,-113) translate(34,72) rotate(0,0,0)"><text fill="" stroke="none" font-family="helvetica" font-size="8pt" font-style="normal" font-weight="normal" text-decoration="normal" x="0" y="0" text-anchor="end" dominant-baseline="central">30000</text><g transform="rotate(0,0,0) translate(-34,-72) translate(34,31) rotate(0,0,0)"><text fill="" stroke="none" font-family="helvetica" font-size="8pt" font-style="normal" font-weight="normal" text-decoration="normal" x="0" y="0" text-anchor="end" dominant-baseline="central">40000</text><g transform="rotate(0,0,0) translate(-34,-31)"/></g></g></g></g></g></g></g></g></g></svg>